<svg width="866" height="867" viewBox="0 0 866 867" fill="none" xmlns="http://www.w3.org/2000/svg">
<g id="Group 2">
<path id="plastic-basin" d="M247.5 85L228.5 78L212 98.5L194 108.5L180.5 128.5L176 142.5L161 183L144 201.5L147.5 219L158 237.5L157.5 247.5L163.5 250.5L161 259.5L169 265L161 295L156.5 312H150.5L146 320.5V329.5L262 371.947L325 395L352.5 367.5L267.5 295.5L266.5 283L258.5 276.5L250.5 245L255 238L257 207.5L254.5 200L264 180L276.5 164.5L279.5 148L289 143L297.5 133L303 129.5L305.5 121.5L312.5 120.5L323.5 92.5L329.5 91.5L330 67L304 70L286 85H247.5Z" stroke="black"/>
<path id="arsunt" d="M386.5 263L399 237.5L390.5 193.25C392.5 193.667 396.8 194.6 398 195C399.2 195.4 406.5 202.833 410 206.5L420.5 203L446.5 204L439.5 248L443.5 264L442.5 297L448 304L445 342L449 351L444.5 381.5L433 382.5L410 391.5C404.667 382.333 394 363.6 394 362C394 360.4 394.667 348 395 342L391.5 333L385.5 323.5L386.5 263Z" stroke="black"/>
<path id="polar-sink" d="M387 396L410 391.5L433 382.5L444.5 381.5L451 392L466 391.5L474.5 388L487 389L504 407.5L500.5 433.5L487 454L477.5 473L471.5 481.5L469.5 496L450.5 511.5L421.5 513L404 488L390.5 490L376.5 484.5L365 473.5L356.5 473L350.217 464.5L348 461.5L353.5 436L367.5 411.5L387 396Z" stroke="black"/>
<path id="wind-pass" d="M298.5 435.5L293 453.5L293.5 485L277.258 566.5L311 537L334.5 470.5L350.217 464.5L348 461.5L353.5 436L367.5 411.5L387 396L352.5 367.5L325 395L321.5 415.5L298.5 435.5Z" stroke="black"/>
<path id="wind-pass-north" d="M390.5 490L404 488L331.621 611L313 573L311 537L334.5 470.5L350.217 464.5L356.5 473L365 473.5L376.5 484.5L390.5 490Z" stroke="black"/>
<path id="cielago-north" d="M521.5 637.5L533 607.5L505.664 559.5L469.5 496L450.5 511.5L421.5 513L404 488L331.621 611L322.5 626.5L326 639.5L334 646L345 657.5L404.5 665.5L410 659L433 658.5L478.5 688.5L493 680L512 651L521.5 637.5Z" stroke="black"/>
<path id="harg-pass" d="M471.5 481.5L477.5 473L504 492.5L529.5 481L549.5 491L541 522.5L524 522L513.5 518.5V538L505.664 559.5L469.5 496L471.5 481.5Z" stroke="black"/>
<path id="false-wall-east" d="M487 389L474.5 388L472.5 378L489 365L498.5 347.5L520 361.5L527.5 371.5L545.5 395V434.5L539 438.5L542 452.5L529.5 481L504 492.5L477.5 473L487 454L500.5 433.5L504 407.5L487 389Z" stroke="black"/>
<path id="the-minor-erg" d="M549 361.5L527.5 371.5L545.5 395V434.5L539 438.5L542 452.5L529.5 481L549.5 491L557.5 490L570.5 502L579 536L590.5 552.5L599 552L611 525.5L605 494L628.5 436L635 405L632 363.5L621 343.5L621.25 315.75L608 320.5L604 330.5L596.5 333L590 347.5L579.5 344.5L554.5 352.5L549 361.5Z" stroke="black"/>
<path id="shield-wall" d="M708 174L682.5 177L662.5 203.5V214.5L632.5 235L620.5 237.5L559 272.5L550.5 273.5L542 274.5L523.5 307.5L529.5 314.5L498.5 347.5L520 361.5L527.5 371.5L549 361.5L554.5 352.5L579.5 344.5L590 347.5L596.5 333L604 330.5L608 320.5L621.25 315.75L634.5 311L639.5 305L639 298.5L650.5 295L660.5 284L671.5 258L703.5 232L719.5 219.5L735 190.5V181.5L708 174Z" stroke="black"/>
<path id="imperial-basin" d="M524 55L503.5 39L481.5 67.5L465 105.5L456 113.5L465 128V164L446.5 204L439.5 248L443.5 264L442.5 297L448 304L445 342L449 351L444.5 381.5L451 392L466 391.5L474.5 388L472.5 378L489 365L498.5 347.5L529.5 314.5L523.5 307.5L542 274.5L550.5 273.5L567.5 227.5L565 222.5L569.5 218L567 205L578.5 185.416L566 182L556 185L546.5 168L522.5 151L521 134.5L534.5 121.5L546 95.5L540 74.5L542.5 68L534 55H524Z" stroke="black"/>
<path id="hole-in-the-rock" d="M628.5 172.5L619 170L610.5 184L609 193L603 192.5L602.5 198.5L588 206.5L588.5 212.5L567.5 227.5L550.5 273.5L559 272.5L620.5 237.5L632.5 235L662.5 214.5V203.5L682.5 177L691.5 165L690.5 151.5H675.016L654.5 162.5L644.5 164L628.5 172.5Z" stroke="black"/>
<path id="rim-wall-west" d="M625 119H617.5L578.5 185.416L567 205L569.5 218L565 222.5L567.5 227.5L588.5 212.5L588 206.5L602.5 198.5L603 192.5L609 193L610.5 184L619 170L625 159L628.5 140.5L637 131L635 114.5L630.5 111.5L625 119Z" stroke="black"/>
<path id="arrakeen" d="M572.5 68H542.5L540 74.5L546 95.5L534.5 121.5L521 134.5L522.5 151L546.5 168L556 185L566 182L578.5 185.416L617.5 119L616 101L595.5 75.5L572.5 68Z" stroke="black"/>
<path id="hagga-basin" d="M267.5 295.5L352.5 367.5L387 396L410 391.5C404.667 382.333 394 363.6 394 362C394 360.4 394.667 348 395 342L391.5 333L385.5 323.5L386.5 263L399 237.5L390.5 193.25L382 149L355 161.5L349 157.5L321.5 162L291 186L280.5 206.5L264.5 212.5L257 207.5L255 238L250.5 245L258.5 276.5L266.5 283L267.5 295.5Z" stroke="black"/>
<path id="carthag" d="M380.5 126L382 149L390.5 193.25C392.5 193.667 396.8 194.6 398 195C399.2 195.4 406.5 202.833 410 206.5L420.5 203L446.5 204L465 164V128L456 113.5L427 109.5L415.5 116L380.5 126Z" stroke="black"/>
<path id="tsimpo" d="M367 52.5L330 67L329.5 91.5L323.5 92.5L312.5 120.5L305.5 121.5L303 129.5L297.5 133L289 143L279.5 148L276.5 164.5L264 180L254.5 200L257 207.5L264.5 212.5L280.5 206.5L291 186L321.5 162L349 157.5L355 161.5L382 149L380.5 126L415.5 116L427 109.5L456 113.5L465 105.5L481.5 67.5L503.5 39L478 34H465.5L452 37L441.5 46L408.5 44L367 52.5Z" stroke="black"/>
<circle id="border" cx="433" cy="433" r="432.5" stroke="black"/>
<path id="habbanya-ridge-flat" d="M218 809.359L252 752L258.5 714.5L248.5 701.5L235 700.5L218.5 691L215.5 663L200.5 632.5L199 609L206 603L207 590.5L197.5 576.5L178.5 571L163 562H151.5L140 551L130.5 550.5L121 550L27.0349 583.5C62.3263 679.302 130.561 759.168 218 809.359Z" stroke="black"/>
<path id="cielago-west" d="M281 749.5L305 727.5L306.5 705.5L320 691L325 663.5L321 653L334 646L326 639.5L322.5 626.5L331.621 611L313 573L311 537L277.258 566.5L265.5 625.5L246.5 646.5L248.5 701.5L258.5 714.5L252 752L281 749.5Z" stroke="black"/>
<path id="meridian" d="M398.5 763.5L407.5 750L371.5 749L341.5 735L321.5 737L305 727.5L281 749.5L252 752L218 809.359C271.108 839.845 331.301 859.383 395.5 864.897L396 840.5L405 823.5L396.5 796L398.5 763.5Z" stroke="black"/>
<path id="cielago-depression" d="M517.5 676L512 651L493 680L478.5 688.5L433 658.5L410 659L404.5 665.5L345 657.5L334 646L321 653L325 663.5L320 691L306.5 705.5L305 727.5L321.5 737L341.5 735L371.5 749L407.5 750L429 749.5L467.5 741L487 739.5L513.5 728L533.5 726.5L541.5 707.5L517.5 676Z" stroke="black"/>
<path id="cielago-south" d="M535 743.5L533.5 726.5L513.5 728L487 739.5L467.5 741L429 749.5L407.5 750L398.5 763.5L396.5 796L405 823.5L396 840.5L395.5 864.897C407.859 865.958 420.366 866.5 433 866.5C472.819 866.5 511.382 861.119 548 851.044L543 843V811L548.5 794.5L546.5 763.5L535 743.5Z" stroke="black"/>
<path id="cielago-east" d="M686 784.82L685.5 747L673.5 749.5L654.5 746L645.5 732L641 712L624 693L601.5 683L570 653.5L533 607.5L521.5 637.5L512 651L517.5 676L541.5 707.5L533.5 726.5L535 743.5L546.5 763.5L548.5 794.5L543 811V843L548 851.044C598.255 837.217 644.847 814.55 686 784.82Z" stroke="black"/>
<path id="false-wall-south" d="M721 692.5L740.5 679.5L715 669L710 653.5L714.5 631L709.5 599V578L682 559L671.5 560L646 544.5L633.5 546.5L611 525.5L599 552L590.5 552.5L579 536L570.5 502L557.5 490L549.5 491L541 522.5L524 522L513.5 518.5V538L505.664 559.5L533 607.5L570 653.5L601.5 683L624 693L641 712L645.5 732L654.5 746L673.5 749.5L685.5 747L704.5 725.5C705.667 719.5 708 707.2 708 706C708 704.8 716.667 696.5 721 692.5Z" stroke="black"/>
<path id="tueks-sietch" d="M790 597L795.5 576.5L771.5 570.5L762 560L725 552.5L709.5 578V599L714.5 631L710 653.5L715 669L740.5 679.5L774 649.5L791 620L790 597Z" stroke="black"/>
<path id="south-mesa" d="M865.5 434H831L820.5 449L816 465.5L821.5 475.5L818 479.5L821.5 489.5L821 516L795.5 576.5L790 597L791 620L774 649.5L740.5 679.5L721 692.5C716.667 696.5 708 704.8 708 706C708 707.2 705.667 719.5 704.5 725.5L685.5 747L686 784.82C794.738 706.264 865.5 578.396 865.5 434Z" stroke="black"/>
<path id="red-chasm" d="M865.5 434C865.5 392.364 859.617 352.102 848.636 314L823.5 340.5L823 348.5L807 360L799 378L804 400.5L819 421.5H831.5L831 434H865.5Z" stroke="black"/>
<path id="pasty-mesa" d="M707.5 248.5L703.5 232L671.5 258L660.5 284L650.5 295L639 298.5L639.5 305L634.5 311L621.25 315.75L621 343.5L632 363.5L635 405L628.5 436L605 494L611 525.5L633.5 546.5L646 544.5L671.5 560L682 559L709.5 578L725 552.5L762 560L771.5 570.5L795.5 576.5L821 516L821.5 489.5L818 479.5L821.5 475.5L816 465.5L820.5 449L831 434L831.5 421.5H819L804 400.5L799 378L807 360L823 348.5L823.5 340.5L848.636 314C842.159 291.528 833.91 269.808 824.049 249H811.5L806 254.5L799.5 250L783 262L771 255L745 263.5L736 253L714 253.5L707.5 248.5Z" stroke="black"/>
<path id="gara-kulon" d="M765.169 157L735 181.5V190.5L719.5 219.5L703.5 232L707.5 248.5L714 253.5L736 253L745 263.5L771 255L783 262L799.5 250L806 254.5L811.5 249H824.049C808.31 215.79 788.465 184.905 765.169 157Z" stroke="black"/>
<path id="sihaya-ridge" d="M698 135.5L690.5 151.5L691.5 165L682.5 177L708 174L735 181.5L765.169 157C752.152 141.407 738.058 126.745 723 113.127L698 135.5Z" stroke="black"/>
<path id="basin" d="M654.5 103L635 114.5L637 131L628.5 140.5L625 159L619 170L628.5 172.5L644.5 164L654.5 162.5L675.016 151.5H690.5L698 135.5L723 113.127C707.931 99.5002 691.898 86.9195 675.016 75.5L654.5 103Z" stroke="black"/>
<path id="old-gap" d="M473.5 20.5L465.5 34H478L503.5 39L524 55H534L542.5 68H572.5L595.5 75.5L616 101L617.5 119H625L630.5 111.5L635 114.5L654.5 103L675.016 75.5C616.864 36.1659 548.63 10.6087 475 3.51318L473.5 20.5Z" stroke="black"/>
<path id="broken-land" d="M433 1.5C354.738 1.5 281.332 22.2868 218 58.6405L228.5 78L247.5 85H286L304 70L330 67L367 52.5L408.5 44L441.5 46L452 37L465.5 34L473.5 20.5L475 3.5132C461.18 2.18139 447.169 1.5 433 1.5Z" stroke="black"/>
<path id="rock-outcroppings" d="M228.5 78.0001L218 58.6406C155.24 94.6664 102.373 145.98 64.4806 207.5L79.5 221L89 222.5L92 228L128 195L144 201.5L161 183L176 142.5L180.5 128.5L194 108.5L212 98.5001L228.5 78.0001Z" stroke="black"/>
<path id="sietch-tabr" d="M145.5 291.5L161 295L169 265L161 259.5L163.5 250.5L157.5 247.5L158 237.5L147.5 219L144 201.5L128 195L92 228L91.5 235L84.5 250L74.5 251.5L73.5 268.5L88.5 286.5L99.5 288L109.5 283.5L132.5 292.5L145.5 291.5Z" stroke="black"/>
<path id="bight-of-the-cliff" d="M133 338.5L146 329.5V320.5L150.5 312H156.5L161 295L145.5 291.5L132.5 292.5L109.5 283.5L99.5 288L88.5 286.5L73.5 268.5L74.5 251.5L84.5 250L91.5 235L92 228L89 222.5L79.5 221L64.4806 207.5C42.6539 242.937 25.7954 281.76 14.8762 323L29.5 324L38 334L57.5 332L84 324L103.5 334L108 341L133 338.5Z" stroke="black"/>
<path id="funeral-plain" d="M133 338.5L146 329.5L262 371.947L261.5 380.5L228 385.5L217 378L183.5 374.5C166.667 377.833 132.7 384.5 131.5 384.5C130.3 384.5 111.667 385.5 102.5 386L74.5 377.5L25.5 375.5L6.38245 362.5C8.60907 349.116 11.4503 335.939 14.8762 323L29.5 324L38 334L57.5 332L84 324L103.5 334L108 341L133 338.5Z" stroke="black"/>
<path id="the-great-flat" d="M0.5 434C0.5 434.5 0.500849 435 0.502546 435.5H298.5L321.5 415.5L325 395L262 371.947L261.5 380.5L228 385.5L217 378L183.5 374.5C166.667 377.833 132.7 384.5 131.5 384.5C130.3 384.5 111.667 385.5 102.5 386L74.5 377.5L25.5 375.5L6.38247 362.5C2.51327 385.758 0.5 409.644 0.5 434Z" stroke="black"/>
<path id="the-greater-flat" d="M0.5 434C0.5 434.5 0.500849 435 0.502546 435.5M0.502546 435.5C0.580518 458.466 2.44845 481.01 5.97411 503L17.5 500.5L49.5 506.5L90.5 507.5L123.5 500L157.5 499L178.5 494.5L193 499H213L232 509.5V484.5L236.5 483L237 477.5L257 468.5L260.5 457L293 453.5L298.5 435.5H0.502546Z" stroke="black"/>
<path id="habbany-erg" d="M178.5 571L197.5 576.5L205.5 557L232.5 527L232 509.5L213 499H193L178.5 494.5L157.5 499L123.5 500L90.5 507.5L49.5 506.5L17.5 500.5L5.97412 503C10.4326 530.808 17.5419 557.731 27.0349 583.5L121 550L130.5 550.5L140 551L151.5 562H163L178.5 571Z" stroke="black"/>
<path id="false-wall-west" d="M235 700.5L248.5 701.5L246.5 646.5L265.5 625.5L277.258 566.5L293.5 485L293 453.5L260.5 457L257 468.5L237 477.5L236.5 483L232 484.5V509.5L232.5 527L205.5 557L197.5 576.5L207 590.5L206 603L199 609L200.5 632.5L215.5 663L218.5 691L235 700.5Z" stroke="black"/>
<path id="habbanya-sietch" d="M105.5 590.5L96 609L104 646L139 684.5C153.167 673 181.5 649.5 181.5 647.5C181.5 645.5 167.833 622 161 610.5L160 601L154.5 586.5L129.5 580.5L105.5 590.5Z" stroke="black"/>
</g>
</svg>
